# xmcd CD database file
#
# Track frame offsets:
#	150
#	12535
#	26769
#	42582
#	59352
#	69915
#	80004
#	89492
#	101302
#	107825
#	121900
#	139810
#	149067
#	162780
#	176540
#	187395
#	201350
#	211555
#	225685
#	243460
#	257097
#	269587
#
# Disc length: 3862 seconds
#
# Revision: 0
# Processed by: cddbd v1.5.1PL0 Copyright (c) Steve Scherf et al.
# Submitted via: CDex 1.50
#
DISCID=4b0f1416
DTITLE=Various Artist - 20 sucessos de ouro
DYEAR=1900
DGENRE=Country
TTITLE0=I can't stop love you
TTITLE1=Rollin' my sweet baby's arms
TTITLE2=Worried man blues
TTITLE3=Blue Ridge Mountain
TTITLE4=Jesse James
TTITLE5=Act naturally
TTITLE6=Rock stop
TTITLE7=Handsome Molly
TTITLE8=Turkey in the straw
TTITLE9=I just can't çhelp believing
TTITLE10=You and I
TTITLE11=Magnificent seve
TTITLE12=M.T.A.
TTITLE13=Raindrops keep falling on my head
TTITLE14=Singing the blues
TTITLE15=Today I started lovin you again
TTITLE16=The hight and the might
TTITLE17=Jambalaya
TTITLE18=Tell me why
TTITLE19=Me and you and a dog named Boo
TTITLE20=Five hundred
TTITLE21=Love hurts
EXTD=
EXTT0=
EXTT1=
EXTT2=
EXTT3=
EXTT4=
EXTT5=
EXTT6=
EXTT7=
EXTT8=
EXTT9=
EXTT10=
EXTT11=
EXTT12=
EXTT13=
EXTT14=
EXTT15=
EXTT16=
EXTT17=
EXTT18=
EXTT19=
EXTT20=
EXTT21=
PLAYORDER=
